HIERARCHY
ROOT Hips
{
    OFFSET 0.000000 0.000000 0.000000
    CHANNELS 6 Xposition Yposition Zposition Zrotation Xrotation Yrotation
    JOINT Spine
    {
        OFFSET -0.000000 7.236184 0.000000
        CHANNELS 3 Zrotation Xrotation Yrotation
        JOINT Spine1
        {
            OFFSET -0.000000 20.420147 0.000000
            CHANNELS 3 Zrotation Xrotation Yrotation
            JOINT Neck
            {
                OFFSET -0.000000 20.336288 1.848754
                CHANNELS 3 Zrotation Xrotation Yrotation
                JOINT Head
                {
                    OFFSET -0.000000 12.354461 -1.764923
                    CHANNELS 3 Zrotation Xrotation Yrotation
                    End Site
                    {
                        OFFSET -0.000000 22.061537 0.000000
                    }
                }
            }
            JOINT LeftShoulder
            {
                OFFSET 3.573296 18.396038 -0.314103
                CHANNELS 3 Zrotation Xrotation Yrotation
                JOINT LeftArm
                {
                    OFFSET 10.880760 0.000000 0.000000
                    CHANNELS 3 Zrotation Xrotation Yrotation
                    JOINT LeftForeArm
                    {
                        OFFSET 27.185530 0.000000 0.000000
                        CHANNELS 3 Zrotation Xrotation Yrotation
                        JOINT LeftHand
                        {
                            OFFSET 27.825975 0.000000 0.000000
                            CHANNELS 3 Zrotation Xrotation Yrotation
                            End Site
                            {
                                OFFSET 13.236923 0.000000 0.000000
                            }
                        }
                    }
                }
            }
            JOINT RightShoulder
            {
                OFFSET -3.474926 18.396038 -0.314103
                CHANNELS 3 Zrotation Xrotation Yrotation
                JOINT RightArm
                {
                    OFFSET -10.880760 0.000000 0.000000
                    CHANNELS 3 Zrotation Xrotation Yrotation
                    JOINT RightForeArm
                    {
                        OFFSET -27.185530 0.000000 0.000000
                        CHANNELS 3 Zrotation Xrotation Yrotation
                        JOINT RightHand
                        {
                            OFFSET -27.825975 0.000000 0.000000
                            CHANNELS 3 Zrotation Xrotation Yrotation
                            End Site
                            {
                                OFFSET -13.236923 0.000000 0.000000
                            }
                        }
                    }
                }
            }
        }
    }
    JOINT LeftUpLeg
    {
        OFFSET 8.824615 0.000000 0.000000
        CHANNELS 3 Zrotation Xrotation Yrotation
        JOINT LeftLeg
        {
            OFFSET -0.000000 -35.111282 0.000000
            CHANNELS 3 Zrotation Xrotation Yrotation
            JOINT LeftFoot
            {
                OFFSET -0.000000 -42.324711 0.000000
                CHANNELS 3 Zrotation Xrotation Yrotation
                JOINT LeftToeBase
                {
                    OFFSET -0.000000 -5.735999 13.236923
                    CHANNELS 3 Zrotation Xrotation Yrotation
                    End Site
                    {
                        OFFSET -0.000000 0.000000 3.529846
                    }
                }
            }
        }
    }
    JOINT RightUpLeg
    {
        OFFSET -8.824615 0.000000 0.000000
        CHANNELS 3 Zrotation Xrotation Yrotation
        JOINT RightLeg
        {
            OFFSET -0.000000 -35.111282 0.000000
            CHANNELS 3 Zrotation Xrotation Yrotation
            JOINT RightFoot
            {
                OFFSET -0.000000 -42.324711 0.000000
                CHANNELS 3 Zrotation Xrotation Yrotation
                JOINT RightToeBase
                {
                    OFFSET -0.000000 -5.735999 13.236923
                    CHANNELS 3 Zrotation Xrotation Yrotation
                    End Site
                    {
                        OFFSET -0.000000 0.000000 3.529846
                    }
                }
            }
        }
    }
}
MOTION
Frames:    8
Frame Time:    0.008333
-6.811880    82.714127    99.075645    0.325855    -4.874162    -176.276230    -1.143035    -11.314745    1.025712    -1.477060    7.284754    1.233035    1.238241    10.772758    -4.107796    10.349002    -15.470999    -1.502849    -3.415810    19.379456    1.963318    -55.171082    34.997971    -28.099375    16.384056    -17.448885    -65.167397    18.384424    -7.066588    0.415869    8.614379    19.899048    -9.408616    49.329586    40.750607    27.023787    -22.620632    -22.922934    72.491234    -20.855591    -6.151050    -2.570100    2.943392    -11.099315    -2.786350    0.988601    21.825054    2.641402    -6.136804    -12.610750    -10.531977    -0.750053    -1.277019    0.833340    -4.101108    -7.024851    1.225244    0.969027    16.526501    5.246687    -0.440848    -9.880116    -13.560173    -1.678518    -1.476435    1.819152    
-6.690922    82.697632    99.037903    0.246561    -4.813508    -176.371170    -1.061212    -11.350200    1.007680    -1.424906    7.387764    1.205202    1.214859    10.740688    -3.881357    9.707103    -15.398291    -1.448598    -3.508802    19.493971    1.995617    -55.094376    35.010830    -28.039244    16.285143    -17.272322    -65.044708    18.838074    -7.001030    0.231064    8.709600    20.040123    -9.349243    49.046059    41.203770    27.516434    -22.609753    -22.973892    72.193176    -20.867750    -6.315481    -2.524777    2.966502    -10.986548    -2.731731    0.983769    21.801888    2.749471    -6.226443    -12.611780    -10.607522    -0.747943    -1.299182    0.831030    -4.082965    -7.000899    1.295736    0.973030    16.622303    5.287479    -0.508638    -9.939335    -13.586801    -1.686147    -1.456517    1.827369    
-6.568130    82.681557    98.999504    0.164460    -4.758258    -176.469971    -0.978634    -11.382261    0.988200    -1.372427    7.474978    1.175445    1.193545    10.706789    -3.648057    9.053486    -15.312953    -1.390599    -3.592546    19.589853    2.038686    -54.988049    34.952400    -27.923239    16.168360    -17.055595    -64.945297    19.298065    -6.903599    0.036934    8.791969    20.177490    -9.293472    48.761684    41.593739    27.968674    -22.569775    -22.986086    71.924072    -20.818460    -6.453896    -2.469800    2.987810    -10.875317    -2.675220    0.979118    21.773752    2.859876    -6.317178    -12.610219    -10.683689    -0.744135    -1.323195    0.826836    -4.067506    -6.978750    1.365398    0.977400    16.711178    5.330013    -0.571283    -9.996691    -13.609654    -1.692145    -1.440549    1.833827    
-6.447192    82.666740    98.961815    0.083439    -4.711783    -176.569305    -0.897506    -11.411130    0.967657    -1.320307    7.542885    1.144419    1.175514    10.671258    -3.414909    8.409358    -15.217633    -1.330037    -3.663111    19.664326    2.091899    -54.859745    34.825172    -27.753288    16.040390    -16.809618    -64.869781    19.741405    -6.779580    -0.155887    8.857553    20.304300    -9.245513    48.490017    41.907623    28.361736    -22.503418    -22.956963    71.695587    -20.709055    -6.557462    -2.406836    3.007941    -10.770462    -2.618548    0.974934    21.740875    2.966228    -6.405634    -12.606250    -10.755164    -0.739313    -1.347966    0.821514    -4.053518    -6.960824    1.431171    0.981211    16.790100    5.373002    -0.628654    -10.049890    -13.627636    -1.696375    -1.427794    1.838379    
-6.324244    82.653275    98.924133    0.003548    -4.675300    -176.671814    -0.813950    -11.439779    0.945378    -1.265917    7.592824    1.110921    1.159928    10.632976    -3.174903    7.757863    -15.111100    -1.264109    -3.721878    19.719543    2.156531    -54.710922    34.627476    -27.522480    15.899727    -16.532471    -64.812851    20.171867    -6.629321    -0.348625    8.908233    20.422592    -9.205807    48.226208    42.153740    28.703909    -22.410284    -22.884726    71.503593    -20.537828    -6.625882    -2.334247    3.030415    -10.671844    -2.560469    0.970054    21.702188    3.070251    -6.493797    -12.599793    -10.821887    -0.733836    -1.374053    0.815468    -4.037509    -6.949625    1.495450    0.983843    16.861290    5.416688    -0.683177    -10.099906    -13.641003    -1.699245    -1.416924    1.841461    
-6.201108    82.641922    98.887505    -0.070701    -4.652303    -176.775238    -0.727110    -11.470001    0.921647    -1.209262    7.623052    1.075316    1.146887    10.593623    -2.932113    7.112600    -14.998616    -1.192818    -3.767021    19.754328    2.231732    -54.547512    34.362503    -27.233330    15.748358    -16.232836    -64.773247    20.571644    -6.459357    -0.533288    8.942697    20.528811    -9.177161    47.977810    42.324352    28.984970    -22.292519    -22.769028    71.355537    -20.307674    -6.654572    -2.253436    3.058193    -10.584377    -2.501671    0.964378    21.658098    3.169436    -6.580129    -12.590623    -10.882291    -0.728308    -1.401346    0.809367    -4.016098    -6.948320    1.558982    0.985172    16.922789    5.458699    -0.736769    -10.144830    -13.650619    -1.701212    -1.407306    1.843568    
-6.077687    82.633018    98.852234    -0.136891    -4.644483    -176.878967    -0.635279    -11.503457    0.896706    -1.149546    7.633947    1.037422    1.135756    10.553844    -2.686912    6.476675    -14.884203    -1.115469    -3.798236    19.768684    2.316645    -54.373226    34.032612    -26.886271    15.584434    -15.915369    -64.748718    20.930035    -6.275294    -0.706323    8.961652    20.621868    -9.160810    47.746712    42.418118    29.202114    -22.151573    -22.610746    71.254089    -20.021208    -6.642457    -2.165042    3.094108    -10.510170    -2.442817    0.956913    21.608568    3.264197    -6.664420    -12.578438    -10.936240    -0.723083    -1.429986    0.803602    -3.986480    -6.958529    1.623951    0.985318    16.973877    5.496869    -0.787619    -10.184244    -13.656664    -1.702625    -1.398316    1.845076    
-5.953382    82.626709    98.818329    -0.194168    -4.652505    -176.982864    -0.537321    -11.541356    0.870378    -1.085788    7.626565    0.997099    1.125406    10.514714    -2.438581    5.850642    -14.772042    -1.030802    -3.814950    19.762383    2.410635    -54.189671    33.637394    -26.480663    15.403811    -15.581792    -64.737457    21.239004    -6.081355    -0.865623    8.965502    20.701307    -9.157018    47.533562    42.432228    29.353270    -21.987473    -22.409767    71.202095    -19.678387    -6.588483    -2.070152    3.139612    -10.449538    -2.384117    0.947283    21.552870    3.355784    -6.747154    -12.562723    -10.984667    -0.718679    -1.459557    0.798751    -3.947142    -6.980606    1.693142    0.984762    17.013931    5.529017    -0.839418    -10.217443    -13.660536    -1.703852    -1.388869    1.846382    
